M48
;Layer_Color=9474304
;FILE_FORMAT=4:4
METRIC,LZ
;TYPE=PLATED
T01F00S00C0.2540
T02F00S00C0.5080
T03F00S00C0.7620
T04F00S00C1.5240
%
T01
X0057785Y0016383
Y0017526
Y0018669
Y0019685
Y0020701
Y0021717
Y0022733
Y0028575
Y0029718
Y0030861
Y0031877
Y0032893
Y0033909
Y0034925
X00318585Y00196475
X0021209Y0016129
T02
X0014859Y0016256
X0033909Y0020701
X0037592
X0010795Y0016256
T03
X002794Y000254
X003048
X003302
X003556
X00381
X004064
X004318
X004572
X00508
X005334
X005588
X005842
X006096
X00635
Y00508
X006096
X005842
X005588
X005334
X00508
X004826
X004572
X0041656
X0039116
X0036576
X0034036
X0031496
X0028956
X0026416
X0023876
X0021336
X0018796
T04
X000381Y002286
Y003048
M30
