G04*
G04 #@! TF.GenerationSoftware,Altium Limited,Altium Designer,26.7.1 (11)*
G04*
G04 Layer_Color=255*
G04 Board_Origin=10000000|10000000*
%FSLAX44Y44*%
%MOMM*%
G71*
G04*
G04 #@! TF.SameCoordinates,53AF4999-9EF4-4CB5-B898-457812D12FD6*
G04*
G04*
G04 #@! TF.FilePolarity,Positive*
G04*
G01*
G75*
%ADD14R,0.4500X0.4500*%
%ADD15R,0.4500X0.3500*%
%ADD16R,0.7000X6.7600*%
%ADD17R,3.9000X6.7600*%
%ADD18R,1.8000X7.5000*%
%ADD19R,1.3562X1.0546*%
G04:AMPARAMS|DCode=20|XSize=1.2544mm|YSize=0.5321mm|CornerRadius=0.2661mm|HoleSize=0mm|Usage=FLASHONLY|Rotation=90.000|XOffset=0mm|YOffset=0mm|HoleType=Round|Shape=RoundedRectangle|*
%AMROUNDEDRECTD20*
21,1,1.2544,0.0000,0,0,90.0*
21,1,0.7223,0.5321,0,0,90.0*
1,1,0.5321,0.0000,0.3611*
1,1,0.5321,0.0000,-0.3611*
1,1,0.5321,0.0000,-0.3611*
1,1,0.5321,0.0000,0.3611*
%
%ADD20ROUNDEDRECTD20*%
%ADD21R,0.5321X1.2544*%
%ADD22R,1.4900X0.9600*%
%ADD23R,1.4700X1.0200*%
%ADD24C,1.5240*%
%ADD25R,1.5240X1.5240*%
%ADD26C,2.5400*%
D14*
X305695Y185045D02*
D03*
X313695D02*
D03*
D15*
X312945Y169805D02*
D03*
X306445D02*
D03*
D16*
X565460Y318770D02*
D03*
X505460D02*
D03*
X565940Y195580D02*
D03*
X505940D02*
D03*
D17*
X535460Y318770D02*
D03*
X535940Y195580D02*
D03*
D18*
X284540Y105410D02*
D03*
X228540D02*
D03*
D19*
X375920Y178524D02*
D03*
Y193040D02*
D03*
X339090Y178162D02*
D03*
Y192678D02*
D03*
D20*
X220370Y194653D02*
D03*
X239370D02*
D03*
X229870Y173647D02*
D03*
Y194653D02*
D03*
X239370Y173647D02*
D03*
D21*
X220370D02*
D03*
D22*
X148590Y175750D02*
D03*
Y192550D02*
D03*
X107950Y175750D02*
D03*
Y192550D02*
D03*
D23*
X187960Y143990D02*
D03*
Y127790D02*
D03*
D24*
X635000Y508000D02*
D03*
X609600D02*
D03*
X584200D02*
D03*
X558800D02*
D03*
X508000D02*
D03*
X533400D02*
D03*
X482600D02*
D03*
X533400Y25400D02*
D03*
X558800D02*
D03*
X584200D02*
D03*
X609600D02*
D03*
X635000D02*
D03*
X416560Y508000D02*
D03*
X391160D02*
D03*
X365760D02*
D03*
X340360D02*
D03*
X314960D02*
D03*
X289560D02*
D03*
X238760D02*
D03*
X213360D02*
D03*
X264160D02*
D03*
X457200Y25400D02*
D03*
X381000D02*
D03*
X330200D02*
D03*
X355600D02*
D03*
X304800D02*
D03*
X406400D02*
D03*
X431800D02*
D03*
D25*
X457200Y508000D02*
D03*
X508000Y25400D02*
D03*
X187960Y508000D02*
D03*
X279400Y25400D02*
D03*
D26*
X38100Y304800D02*
D03*
Y228600D02*
D03*
M02*
