G04*
G04 #@! TF.GenerationSoftware,Altium Limited,Altium Designer,26.7.1 (11)*
G04*
G04 Layer_Color=128*
G04 Board_Origin=10000000|10000000*
%FSLAX44Y44*%
%MOMM*%
G71*
G04*
G04 #@! TF.SameCoordinates,53AF4999-9EF4-4CB5-B898-457812D12FD6*
G04*
G04*
G04 #@! TF.FilePolarity,Positive*
G04*
G01*
G75*
%ADD31C,0.1270*%
D31*
X631190Y508000D02*
X638810D01*
X635000Y504190D02*
Y511810D01*
X605790Y508000D02*
X613410D01*
X609600Y504190D02*
Y511810D01*
X580390Y508000D02*
X588010D01*
X584200Y504190D02*
Y511810D01*
X554990Y508000D02*
X562610D01*
X558800Y504190D02*
Y511810D01*
X504190Y508000D02*
X511810D01*
X508000Y504190D02*
Y511810D01*
X529590Y508000D02*
X537210D01*
X533400Y504190D02*
Y511810D01*
X478790Y508000D02*
X486410D01*
X482600Y504190D02*
Y511810D01*
X453390Y508000D02*
X461010D01*
X457200Y504190D02*
Y511810D01*
X504190Y25400D02*
X511810D01*
X508000Y21590D02*
Y29210D01*
X529590Y25400D02*
X537210D01*
X533400Y21590D02*
Y29210D01*
X554990Y25400D02*
X562610D01*
X558800Y21590D02*
Y29210D01*
X580390Y25400D02*
X588010D01*
X584200Y21590D02*
Y29210D01*
X605790Y25400D02*
X613410D01*
X609600Y21590D02*
Y29210D01*
X631190Y25400D02*
X638810D01*
X635000Y21590D02*
Y29210D01*
X412750Y508000D02*
X420370D01*
X416560Y504190D02*
Y511810D01*
X387350Y508000D02*
X394970D01*
X391160Y504190D02*
Y511810D01*
X361950Y508000D02*
X369570D01*
X365760Y504190D02*
Y511810D01*
X336550Y508000D02*
X344170D01*
X340360Y504190D02*
Y511810D01*
X311150Y508000D02*
X318770D01*
X314960Y504190D02*
Y511810D01*
X285750Y508000D02*
X293370D01*
X289560Y504190D02*
Y511810D01*
X234950Y508000D02*
X242570D01*
X238760Y504190D02*
Y511810D01*
X209550Y508000D02*
X217170D01*
X213360Y504190D02*
Y511810D01*
X184150Y508000D02*
X191770D01*
X187960Y504190D02*
Y511810D01*
X260350Y508000D02*
X267970D01*
X264160Y504190D02*
Y511810D01*
X453390Y25400D02*
X461010D01*
X457200Y21590D02*
Y29210D01*
X377190Y25400D02*
X384810D01*
X381000Y21590D02*
Y29210D01*
X326390Y25400D02*
X334010D01*
X330200Y21590D02*
Y29210D01*
X351790Y25400D02*
X359410D01*
X355600Y21590D02*
Y29210D01*
X300990Y25400D02*
X308610D01*
X304800Y21590D02*
Y29210D01*
X275590Y25400D02*
X283210D01*
X279400Y21590D02*
Y29210D01*
X402590Y25400D02*
X410210D01*
X406400Y21590D02*
Y29210D01*
X427990Y25400D02*
X435610D01*
X431800Y21590D02*
Y29210D01*
X30480Y304800D02*
X45720D01*
X38100Y297180D02*
Y312420D01*
X30480Y228600D02*
X45720D01*
X38100Y220980D02*
Y236220D01*
X576580Y285750D02*
X579120D01*
X577850Y284480D02*
Y287020D01*
X576580Y349250D02*
X579120D01*
X577850Y347980D02*
Y350520D01*
X576580Y339090D02*
X579120D01*
X577850Y337820D02*
Y340360D01*
X576580Y328930D02*
X579120D01*
X577850Y327660D02*
Y330200D01*
X576580Y297180D02*
X579120D01*
X577850Y295910D02*
Y298450D01*
X576580Y318770D02*
X579120D01*
X577850Y317500D02*
Y320040D01*
X576580Y308610D02*
X579120D01*
X577850Y307340D02*
Y309880D01*
X576580Y217170D02*
X579120D01*
X577850Y215900D02*
Y218440D01*
X576580Y196850D02*
X579120D01*
X577850Y195580D02*
Y198120D01*
X576580Y207010D02*
X579120D01*
X577850Y205740D02*
Y208280D01*
X576580Y227330D02*
X579120D01*
X577850Y226060D02*
Y228600D01*
X576580Y186690D02*
X579120D01*
X577850Y185420D02*
Y187960D01*
X576580Y175260D02*
X579120D01*
X577850Y173990D02*
Y176530D01*
X576580Y163830D02*
X579120D01*
X577850Y162560D02*
Y165100D01*
X373380Y207010D02*
X378460D01*
X375920Y204470D02*
Y209550D01*
X336550Y207010D02*
X341630D01*
X339090Y204470D02*
Y209550D01*
X317315Y196475D02*
X319855D01*
X318585Y195205D02*
Y197745D01*
X210820Y161290D02*
X213360D01*
X212090Y160020D02*
Y162560D01*
X146050D02*
X151130D01*
X148590Y160020D02*
Y165100D01*
X105410Y162560D02*
X110490D01*
X107950Y160020D02*
Y165100D01*
M02*
