G04*
G04 #@! TF.GenerationSoftware,Altium Limited,Altium Designer,26.7.1 (11)*
G04*
G04 Layer_Physical_Order=1*
G04 Layer_Color=255*
G04 Board_Origin=10000000|10000000*
%FSLAX44Y44*%
%MOMM*%
G71*
G04*
G04 #@! TF.SameCoordinates,53AF4999-9EF4-4CB5-B898-457812D12FD6*
G04*
G04*
G04 #@! TF.FilePolarity,Positive*
G04*
G01*
G75*
%ADD13C,0.2540*%
%ADD14R,0.4500X0.4500*%
%ADD15R,0.4500X0.3500*%
%ADD16R,0.7000X6.7600*%
%ADD17R,3.9000X6.7600*%
%ADD18R,1.8000X7.5000*%
%ADD19R,1.3562X1.0546*%
G04:AMPARAMS|DCode=20|XSize=1.2544mm|YSize=0.5321mm|CornerRadius=0.2661mm|HoleSize=0mm|Usage=FLASHONLY|Rotation=90.000|XOffset=0mm|YOffset=0mm|HoleType=Round|Shape=RoundedRectangle|*
%AMROUNDEDRECTD20*
21,1,1.2544,0.0000,0,0,90.0*
21,1,0.7223,0.5321,0,0,90.0*
1,1,0.5321,0.0000,0.3611*
1,1,0.5321,0.0000,-0.3611*
1,1,0.5321,0.0000,-0.3611*
1,1,0.5321,0.0000,0.3611*
%
%ADD20ROUNDEDRECTD20*%
%ADD21R,0.5321X1.2544*%
%ADD22R,1.4900X0.9600*%
%ADD23R,1.4700X1.0200*%
%ADD24C,1.5240*%
%ADD25R,1.5240X1.5240*%
%ADD26C,2.5400*%
%ADD27C,0.7112*%
%ADD28C,0.5080*%
%ADD29C,0.3810*%
G36*
X504994Y356339D02*
X504672Y355110D01*
X499420D01*
Y325120D01*
X505460D01*
Y312420D01*
X499420D01*
Y282430D01*
X508000D01*
Y231920D01*
X499900D01*
Y201930D01*
X505940D01*
Y189230D01*
X499900D01*
Y159240D01*
X508000D01*
Y156210D01*
X466090D01*
X402590Y219710D01*
X195572Y220972D01*
X157690Y183090D01*
X138600D01*
Y182880D01*
X117940D01*
Y183090D01*
X98892D01*
X73660Y214630D01*
X12700Y295910D01*
Y328930D01*
X27940Y344170D01*
X113030D01*
X132080Y363220D01*
X492760D01*
X504994Y356339D01*
D02*
G37*
G36*
X584200Y351790D02*
Y161290D01*
X577850Y154940D01*
X521970D01*
X518160Y158750D01*
Y353907D01*
X523240Y358140D01*
X577850D01*
X584200Y351790D01*
D02*
G37*
G36*
X238760Y67310D02*
X218440D01*
Y99060D01*
X195580Y121920D01*
X180340D01*
Y133350D01*
X208280D01*
X218440Y143510D01*
X238760D01*
Y67310D01*
D02*
G37*
G36*
X383540Y130810D02*
X457200Y57150D01*
Y41910D01*
X466090Y33020D01*
Y13970D01*
X463550Y11430D01*
X452120D01*
X447040Y16510D01*
Y31750D01*
X439420Y39370D01*
X397510D01*
X391160Y33020D01*
Y19050D01*
X386080Y13970D01*
X374650D01*
X369570Y19050D01*
Y31750D01*
X355600Y45720D01*
X294640D01*
X271780Y68580D01*
Y140970D01*
X280670Y149860D01*
X300096D01*
Y151506D01*
X311150Y162560D01*
Y165515D01*
X311235D01*
Y172720D01*
X318770D01*
X330571Y184521D01*
X383540D01*
Y130810D01*
D02*
G37*
%LPC*%
G36*
X39601Y320040D02*
X39370D01*
Y306070D01*
X53340D01*
Y306301D01*
X52754Y309245D01*
X51606Y312019D01*
X49938Y314515D01*
X47815Y316638D01*
X45319Y318305D01*
X42545Y319454D01*
X39601Y320040D01*
D02*
G37*
G36*
X36830D02*
X36599D01*
X33655Y319454D01*
X30881Y318305D01*
X28385Y316638D01*
X26262Y314515D01*
X24595Y312019D01*
X23446Y309245D01*
X22860Y306301D01*
Y306070D01*
X36830D01*
Y320040D01*
D02*
G37*
G36*
X53340Y303530D02*
X39370D01*
Y289560D01*
X39601D01*
X42545Y290146D01*
X45319Y291294D01*
X47815Y292962D01*
X49938Y295085D01*
X51606Y297581D01*
X52754Y300355D01*
X53340Y303299D01*
Y303530D01*
D02*
G37*
G36*
X36830D02*
X22860D01*
Y303299D01*
X23446Y300355D01*
X24595Y297581D01*
X26262Y295085D01*
X28385Y292962D01*
X30881Y291294D01*
X33655Y290146D01*
X36599Y289560D01*
X36830D01*
Y303530D01*
D02*
G37*
%LPD*%
D13*
X239370Y194653D02*
X270853D01*
X280461Y185045D02*
X305695D01*
X270853Y194653D02*
X280461Y185045D01*
X305695D02*
X306070Y184670D01*
X228540Y105410D02*
X229870Y106740D01*
X187960Y508000D02*
X238760Y457200D01*
X532130D01*
X629920Y359410D01*
Y45720D02*
Y359410D01*
X609600Y25400D02*
X629920Y45720D01*
X247650Y473710D02*
X552450D01*
X654050Y372110D01*
X213360Y508000D02*
X247650Y473710D01*
X654050Y44450D02*
Y372110D01*
X635000Y25400D02*
X654050Y44450D01*
X306070Y170180D02*
Y184670D01*
Y170180D02*
X306445Y169805D01*
X220027Y194310D02*
X220370Y194653D01*
D14*
X305695Y185045D02*
D03*
X313695D02*
D03*
D15*
X312945Y169805D02*
D03*
X306445D02*
D03*
D16*
X565460Y318770D02*
D03*
X505460D02*
D03*
X565940Y195580D02*
D03*
X505940D02*
D03*
D17*
X535460Y318770D02*
D03*
X535940Y195580D02*
D03*
D18*
X284540Y105410D02*
D03*
X228540D02*
D03*
D19*
X375920Y178524D02*
D03*
Y193040D02*
D03*
X339090Y178162D02*
D03*
Y192678D02*
D03*
D20*
X220370Y194653D02*
D03*
X239370D02*
D03*
X229870Y173647D02*
D03*
Y194653D02*
D03*
X239370Y173647D02*
D03*
D21*
X220370D02*
D03*
D22*
X148590Y175750D02*
D03*
Y192550D02*
D03*
X107950Y175750D02*
D03*
Y192550D02*
D03*
D23*
X187960Y143990D02*
D03*
Y127790D02*
D03*
D24*
X635000Y508000D02*
D03*
X609600D02*
D03*
X584200D02*
D03*
X558800D02*
D03*
X508000D02*
D03*
X533400D02*
D03*
X482600D02*
D03*
X533400Y25400D02*
D03*
X558800D02*
D03*
X584200D02*
D03*
X609600D02*
D03*
X635000D02*
D03*
X416560Y508000D02*
D03*
X391160D02*
D03*
X365760D02*
D03*
X340360D02*
D03*
X314960D02*
D03*
X289560D02*
D03*
X238760D02*
D03*
X213360D02*
D03*
X264160D02*
D03*
X457200Y25400D02*
D03*
X381000D02*
D03*
X330200D02*
D03*
X355600D02*
D03*
X304800D02*
D03*
X406400D02*
D03*
X431800D02*
D03*
D25*
X457200Y508000D02*
D03*
X508000Y25400D02*
D03*
X187960Y508000D02*
D03*
X279400Y25400D02*
D03*
D26*
X38100Y304800D02*
D03*
Y228600D02*
D03*
D27*
X375920Y207010D02*
D03*
X339090D02*
D03*
X148590Y162560D02*
D03*
X107950D02*
D03*
D28*
X577850Y285750D02*
D03*
Y349250D02*
D03*
Y339090D02*
D03*
Y328930D02*
D03*
Y297180D02*
D03*
Y318770D02*
D03*
Y308610D02*
D03*
Y217170D02*
D03*
Y196850D02*
D03*
Y207010D02*
D03*
Y227330D02*
D03*
Y186690D02*
D03*
Y175260D02*
D03*
Y163830D02*
D03*
X318585Y196475D02*
D03*
X212090Y161290D02*
D03*
D29*
X229870Y194653D02*
Y227330D01*
X239081Y173936D02*
Y180019D01*
X230159Y188941D02*
Y194364D01*
Y188941D02*
X239081Y180019D01*
Y173936D02*
X239370Y173647D01*
X229870Y194653D02*
X230159Y194364D01*
X217170Y161290D02*
X220251Y164371D01*
Y173528D02*
X220370Y173647D01*
X212090Y161290D02*
X217170D01*
X220251Y164371D02*
Y173528D01*
X375920Y193040D02*
Y207010D01*
X339090Y192678D02*
Y207010D01*
X318585Y189935D02*
Y196475D01*
X313695Y185045D02*
X318585Y189935D01*
X148590Y162560D02*
Y175750D01*
X107950Y162560D02*
Y175750D01*
X229870Y106740D02*
Y173647D01*
X187960Y143990D02*
Y172720D01*
X209550Y194310D01*
X220027D01*
M02*
