G04*
G04 #@! TF.GenerationSoftware,Altium Limited,Altium Designer,26.7.1 (11)*
G04*
G04 Layer_Color=2752767*
G04 Board_Origin=10000000|10000000*
%FSLAX44Y44*%
%MOMM*%
G71*
G04*
G04 #@! TF.SameCoordinates,53AF4999-9EF4-4CB5-B898-457812D12FD6*
G04*
G04*
G04 #@! TF.FilePolarity,Positive*
G04*
G01*
G75*
%ADD31C,0.1270*%
D31*
X629920Y502920D02*
Y513080D01*
X640080D01*
Y502920D01*
X629920D01*
X604520D02*
Y513080D01*
X614680D01*
Y502920D01*
X604520D01*
X579120D02*
Y513080D01*
X589280D01*
Y502920D01*
X579120D01*
X553720D02*
Y513080D01*
X563880D01*
Y502920D01*
X553720D01*
X502920D02*
Y513080D01*
X513080D01*
Y502920D01*
X502920D01*
X528320D02*
Y513080D01*
X538480D01*
Y502920D01*
X528320D01*
X477520D02*
Y513080D01*
X487680D01*
Y502920D01*
X477520D01*
X452120D02*
Y513080D01*
X462280D01*
Y502920D01*
X452120D01*
X502920Y20320D02*
Y30480D01*
X513080D01*
Y20320D01*
X502920D01*
X528320D02*
Y30480D01*
X538480D01*
Y20320D01*
X528320D01*
X553720D02*
Y30480D01*
X563880D01*
Y20320D01*
X553720D01*
X579120D02*
Y30480D01*
X589280D01*
Y20320D01*
X579120D01*
X604520D02*
Y30480D01*
X614680D01*
Y20320D01*
X604520D01*
X629920D02*
Y30480D01*
X640080D01*
Y20320D01*
X629920D01*
X411480Y502920D02*
Y513080D01*
X421640D01*
Y502920D01*
X411480D01*
X386080D02*
Y513080D01*
X396240D01*
Y502920D01*
X386080D01*
X360680D02*
Y513080D01*
X370840D01*
Y502920D01*
X360680D01*
X335280D02*
Y513080D01*
X345440D01*
Y502920D01*
X335280D01*
X309880D02*
Y513080D01*
X320040D01*
Y502920D01*
X309880D01*
X284480D02*
Y513080D01*
X294640D01*
Y502920D01*
X284480D01*
X233680D02*
Y513080D01*
X243840D01*
Y502920D01*
X233680D01*
X208280D02*
Y513080D01*
X218440D01*
Y502920D01*
X208280D01*
X182880D02*
Y513080D01*
X193040D01*
Y502920D01*
X182880D01*
X259080D02*
Y513080D01*
X269240D01*
Y502920D01*
X259080D01*
X452120Y20320D02*
Y30480D01*
X462280D01*
Y20320D01*
X452120D01*
X375920D02*
Y30480D01*
X386080D01*
Y20320D01*
X375920D01*
X325120D02*
Y30480D01*
X335280D01*
Y20320D01*
X325120D01*
X350520D02*
Y30480D01*
X360680D01*
Y20320D01*
X350520D01*
X299720D02*
Y30480D01*
X309880D01*
Y20320D01*
X299720D01*
X274320D02*
Y30480D01*
X284480D01*
Y20320D01*
X274320D01*
X401320D02*
Y30480D01*
X411480D01*
Y20320D01*
X401320D01*
X426720D02*
Y30480D01*
X436880D01*
Y20320D01*
X426720D01*
X35560Y302260D02*
Y299720D01*
X40640D01*
Y302260D01*
X43180D01*
Y307340D01*
X40640D01*
Y309880D01*
X35560D01*
Y307340D01*
X33020D01*
Y302260D01*
X35560D01*
Y226060D02*
Y223520D01*
X40640D01*
Y226060D01*
X43180D01*
Y231140D01*
X40640D01*
Y233680D01*
X35560D01*
Y231140D01*
X33020D01*
Y226060D01*
X35560D01*
X572770Y280670D02*
X575310D01*
X577850Y283210D01*
X580390Y280670D01*
X582930D01*
Y283210D01*
X580390Y285750D01*
X582930Y288290D01*
Y290830D01*
X580390D01*
X577850Y288290D01*
X575310Y290830D01*
X572770D01*
Y288290D01*
X575310Y285750D01*
X572770Y283210D01*
Y280670D01*
Y344170D02*
X575310D01*
X577850Y346710D01*
X580390Y344170D01*
X582930D01*
Y346710D01*
X580390Y349250D01*
X582930Y351790D01*
Y354330D01*
X580390D01*
X577850Y351790D01*
X575310Y354330D01*
X572770D01*
Y351790D01*
X575310Y349250D01*
X572770Y346710D01*
Y344170D01*
Y334010D02*
X575310D01*
X577850Y336550D01*
X580390Y334010D01*
X582930D01*
Y336550D01*
X580390Y339090D01*
X582930Y341630D01*
Y344170D01*
X580390D01*
X577850Y341630D01*
X575310Y344170D01*
X572770D01*
Y341630D01*
X575310Y339090D01*
X572770Y336550D01*
Y334010D01*
Y323850D02*
X575310D01*
X577850Y326390D01*
X580390Y323850D01*
X582930D01*
Y326390D01*
X580390Y328930D01*
X582930Y331470D01*
Y334010D01*
X580390D01*
X577850Y331470D01*
X575310Y334010D01*
X572770D01*
Y331470D01*
X575310Y328930D01*
X572770Y326390D01*
Y323850D01*
Y292100D02*
X575310D01*
X577850Y294640D01*
X580390Y292100D01*
X582930D01*
Y294640D01*
X580390Y297180D01*
X582930Y299720D01*
Y302260D01*
X580390D01*
X577850Y299720D01*
X575310Y302260D01*
X572770D01*
Y299720D01*
X575310Y297180D01*
X572770Y294640D01*
Y292100D01*
Y313690D02*
X575310D01*
X577850Y316230D01*
X580390Y313690D01*
X582930D01*
Y316230D01*
X580390Y318770D01*
X582930Y321310D01*
Y323850D01*
X580390D01*
X577850Y321310D01*
X575310Y323850D01*
X572770D01*
Y321310D01*
X575310Y318770D01*
X572770Y316230D01*
Y313690D01*
Y303530D02*
X575310D01*
X577850Y306070D01*
X580390Y303530D01*
X582930D01*
Y306070D01*
X580390Y308610D01*
X582930Y311150D01*
Y313690D01*
X580390D01*
X577850Y311150D01*
X575310Y313690D01*
X572770D01*
Y311150D01*
X575310Y308610D01*
X572770Y306070D01*
Y303530D01*
Y212090D02*
X575310D01*
X577850Y214630D01*
X580390Y212090D01*
X582930D01*
Y214630D01*
X580390Y217170D01*
X582930Y219710D01*
Y222250D01*
X580390D01*
X577850Y219710D01*
X575310Y222250D01*
X572770D01*
Y219710D01*
X575310Y217170D01*
X572770Y214630D01*
Y212090D01*
Y191770D02*
X575310D01*
X577850Y194310D01*
X580390Y191770D01*
X582930D01*
Y194310D01*
X580390Y196850D01*
X582930Y199390D01*
Y201930D01*
X580390D01*
X577850Y199390D01*
X575310Y201930D01*
X572770D01*
Y199390D01*
X575310Y196850D01*
X572770Y194310D01*
Y191770D01*
Y201930D02*
X575310D01*
X577850Y204470D01*
X580390Y201930D01*
X582930D01*
Y204470D01*
X580390Y207010D01*
X582930Y209550D01*
Y212090D01*
X580390D01*
X577850Y209550D01*
X575310Y212090D01*
X572770D01*
Y209550D01*
X575310Y207010D01*
X572770Y204470D01*
Y201930D01*
Y222250D02*
X575310D01*
X577850Y224790D01*
X580390Y222250D01*
X582930D01*
Y224790D01*
X580390Y227330D01*
X582930Y229870D01*
Y232410D01*
X580390D01*
X577850Y229870D01*
X575310Y232410D01*
X572770D01*
Y229870D01*
X575310Y227330D01*
X572770Y224790D01*
Y222250D01*
Y181610D02*
X575310D01*
X577850Y184150D01*
X580390Y181610D01*
X582930D01*
Y184150D01*
X580390Y186690D01*
X582930Y189230D01*
Y191770D01*
X580390D01*
X577850Y189230D01*
X575310Y191770D01*
X572770D01*
Y189230D01*
X575310Y186690D01*
X572770Y184150D01*
Y181610D01*
Y170180D02*
X575310D01*
X577850Y172720D01*
X580390Y170180D01*
X582930D01*
Y172720D01*
X580390Y175260D01*
X582930Y177800D01*
Y180340D01*
X580390D01*
X577850Y177800D01*
X575310Y180340D01*
X572770D01*
Y177800D01*
X575310Y175260D01*
X572770Y172720D01*
Y170180D01*
Y158750D02*
X575310D01*
X577850Y161290D01*
X580390Y158750D01*
X582930D01*
Y161290D01*
X580390Y163830D01*
X582930Y166370D01*
Y168910D01*
X580390D01*
X577850Y166370D01*
X575310Y168910D01*
X572770D01*
Y166370D01*
X575310Y163830D01*
X572770Y161290D01*
Y158750D01*
X370840Y207010D02*
X375920Y212090D01*
X381000Y207010D01*
X375920Y201930D01*
X370840Y207010D01*
X334010D02*
X339090Y212090D01*
X344170Y207010D01*
X339090Y201930D01*
X334010Y207010D01*
X313505Y191395D02*
Y201555D01*
X323665D01*
Y191395D01*
X313505D01*
X315537Y193427D02*
Y199523D01*
X321633D01*
Y193427D01*
X315537D01*
X207010Y156210D02*
Y166370D01*
X217170D01*
Y156210D01*
X207010D01*
X209042Y158242D02*
Y164338D01*
X215138D01*
Y158242D01*
X209042D01*
X143510Y162560D02*
X148590Y167640D01*
X153670Y162560D01*
X148590Y157480D01*
X143510Y162560D01*
X102870D02*
X107950Y167640D01*
X113030Y162560D01*
X107950Y157480D01*
X102870Y162560D01*
M02*
