G04*
G04 #@! TF.GenerationSoftware,Altium Limited,Altium Designer,26.7.1 (11)*
G04*
G04 Layer_Color=16711935*
G04 Board_Origin=10000000|10000000*
%FSLAX44Y44*%
%MOMM*%
G71*
G04*
G04 #@! TF.SameCoordinates,53AF4999-9EF4-4CB5-B898-457812D12FD6*
G04*
G04*
G04 #@! TF.FilePolarity,Positive*
G04*
G01*
G75*
%ADD10C,0.1000*%
%ADD12C,0.2000*%
D10*
X304445Y187795D02*
X314945D01*
X304445Y182295D02*
X314945D01*
X304445D02*
Y187795D01*
X314945Y182295D02*
Y187795D01*
X306445Y168055D02*
Y171555D01*
X312945Y168055D02*
Y171555D01*
X306445D02*
X312945D01*
X306445Y168055D02*
X312945D01*
D12*
X215540Y64410D02*
Y146410D01*
Y64410D02*
X297540D01*
Y146410D01*
X215540D02*
X297540D01*
X369670Y175782D02*
X382170D01*
Y195782D01*
X369670D02*
X382170D01*
X369670Y175782D02*
Y195782D01*
X215370Y176150D02*
X244370D01*
Y192150D01*
X215370D02*
X244370D01*
X215370Y176150D02*
Y192150D01*
X332840Y175420D02*
X345340D01*
Y195420D01*
X332840D02*
X345340D01*
X332840Y175420D02*
Y195420D01*
M02*
