G04*
G04 #@! TF.GenerationSoftware,Altium Limited,Altium Designer,26.7.1 (11)*
G04*
G04 Layer_Color=16711935*
G04 Board_Origin=10000000|10000000*
%FSLAX44Y44*%
%MOMM*%
G71*
G04*
G04 #@! TF.SameCoordinates,53AF4999-9EF4-4CB5-B898-457812D12FD6*
G04*
G04*
G04 #@! TF.FilePolarity,Positive*
G04*
G01*
G75*
%ADD12C,0.2000*%
G36*
X264188Y103528D02*
X263405D01*
Y108535D01*
X263388Y108526D01*
X263355Y108493D01*
X263288Y108435D01*
X263205Y108368D01*
X263097Y108285D01*
X262963Y108193D01*
X262822Y108093D01*
X262655Y107993D01*
X262647D01*
X262638Y107985D01*
X262613Y107968D01*
X262580Y107951D01*
X262488Y107901D01*
X262380Y107843D01*
X262255Y107776D01*
X262114Y107710D01*
X261972Y107643D01*
X261830Y107585D01*
Y108351D01*
X261839D01*
X261864Y108368D01*
X261897Y108385D01*
X261939Y108410D01*
X261997Y108435D01*
X262064Y108476D01*
X262222Y108560D01*
X262397Y108668D01*
X262597Y108801D01*
X262788Y108943D01*
X262980Y109101D01*
X262988Y109109D01*
X263005Y109118D01*
X263030Y109143D01*
X263063Y109176D01*
X263147Y109259D01*
X263255Y109376D01*
X263363Y109501D01*
X263480Y109651D01*
X263588Y109801D01*
X263680Y109959D01*
X264188D01*
Y103528D01*
D02*
G37*
G36*
X257390Y104286D02*
X260539D01*
Y103528D01*
X256540D01*
Y109934D01*
X257390D01*
Y104286D01*
D02*
G37*
G36*
X375812Y204494D02*
X375795D01*
X375762D01*
X375712D01*
X375637Y204502D01*
X375554Y204511D01*
X375462Y204527D01*
X375370Y204552D01*
X375270Y204585D01*
X375262D01*
X375254Y204594D01*
X375229Y204602D01*
X375195Y204619D01*
X375112Y204652D01*
X375004Y204711D01*
X374870Y204785D01*
X374729Y204869D01*
X374579Y204977D01*
X374421Y205102D01*
X374412Y205110D01*
X374404Y205119D01*
X374379Y205144D01*
X374346Y205169D01*
X374254Y205252D01*
X374137Y205369D01*
X373996Y205510D01*
X373829Y205685D01*
X373646Y205893D01*
X373446Y206135D01*
X373437Y206143D01*
X373404Y206177D01*
X373362Y206235D01*
X373304Y206302D01*
X373229Y206385D01*
X373146Y206485D01*
X373054Y206593D01*
X372954Y206702D01*
X372738Y206935D01*
X372513Y207168D01*
X372396Y207276D01*
X372288Y207376D01*
X372188Y207468D01*
X372088Y207543D01*
X372079Y207551D01*
X372063Y207560D01*
X372038Y207576D01*
X372004Y207601D01*
X371954Y207626D01*
X371904Y207660D01*
X371780Y207735D01*
X371638Y207801D01*
X371480Y207860D01*
X371305Y207901D01*
X371221Y207918D01*
X371138D01*
X371130D01*
X371113D01*
X371096D01*
X371063Y207910D01*
X370971Y207901D01*
X370863Y207876D01*
X370738Y207835D01*
X370613Y207776D01*
X370480Y207693D01*
X370355Y207576D01*
X370338Y207560D01*
X370305Y207518D01*
X370255Y207443D01*
X370188Y207343D01*
X370130Y207218D01*
X370080Y207068D01*
X370047Y206893D01*
X370030Y206702D01*
Y206643D01*
X370038Y206610D01*
Y206560D01*
X370047Y206502D01*
X370072Y206377D01*
X370113Y206235D01*
X370172Y206077D01*
X370255Y205927D01*
X370372Y205794D01*
X370388Y205777D01*
X370430Y205744D01*
X370513Y205685D01*
X370613Y205627D01*
X370755Y205560D01*
X370913Y205502D01*
X371096Y205469D01*
X371313Y205452D01*
X371230Y204644D01*
X371221D01*
X371188Y204652D01*
X371146D01*
X371080Y204660D01*
X371005Y204677D01*
X370921Y204694D01*
X370821Y204719D01*
X370721Y204752D01*
X370496Y204827D01*
X370380Y204877D01*
X370271Y204935D01*
X370155Y205002D01*
X370047Y205077D01*
X369947Y205160D01*
X369855Y205260D01*
X369847Y205269D01*
X369838Y205285D01*
X369813Y205319D01*
X369780Y205360D01*
X369747Y205419D01*
X369705Y205485D01*
X369663Y205560D01*
X369613Y205652D01*
X369572Y205752D01*
X369530Y205860D01*
X369488Y205977D01*
X369455Y206110D01*
X369422Y206243D01*
X369397Y206393D01*
X369388Y206552D01*
X369380Y206718D01*
Y206810D01*
X369388Y206868D01*
X369397Y206952D01*
X369405Y207043D01*
X369422Y207143D01*
X369447Y207251D01*
X369505Y207485D01*
X369547Y207601D01*
X369597Y207726D01*
X369655Y207851D01*
X369730Y207968D01*
X369805Y208076D01*
X369897Y208185D01*
X369905Y208193D01*
X369922Y208210D01*
X369947Y208235D01*
X369988Y208268D01*
X370038Y208310D01*
X370097Y208360D01*
X370163Y208401D01*
X370247Y208460D01*
X370330Y208510D01*
X370430Y208551D01*
X370647Y208643D01*
X370763Y208676D01*
X370888Y208701D01*
X371021Y208718D01*
X371163Y208726D01*
X371180D01*
X371230D01*
X371305Y208718D01*
X371405Y208710D01*
X371513Y208685D01*
X371646Y208659D01*
X371780Y208618D01*
X371921Y208568D01*
X371938Y208559D01*
X371988Y208535D01*
X372063Y208501D01*
X372154Y208443D01*
X372271Y208368D01*
X372404Y208276D01*
X372554Y208168D01*
X372704Y208043D01*
X372713D01*
X372721Y208026D01*
X372746Y208001D01*
X372779Y207976D01*
X372821Y207935D01*
X372871Y207885D01*
X372929Y207826D01*
X372996Y207751D01*
X373071Y207676D01*
X373154Y207585D01*
X373254Y207485D01*
X373354Y207376D01*
X373462Y207251D01*
X373571Y207127D01*
X373696Y206977D01*
X373829Y206827D01*
X373837Y206818D01*
X373854Y206793D01*
X373887Y206760D01*
X373921Y206710D01*
X373971Y206660D01*
X374029Y206593D01*
X374154Y206452D01*
X374287Y206293D01*
X374421Y206143D01*
X374479Y206077D01*
X374537Y206019D01*
X374595Y205960D01*
X374637Y205919D01*
X374645Y205910D01*
X374670Y205885D01*
X374712Y205852D01*
X374770Y205802D01*
X374829Y205752D01*
X374904Y205694D01*
X375054Y205585D01*
Y208734D01*
X375812D01*
Y204494D01*
D02*
G37*
G36*
X375803Y204144D02*
X375812Y204102D01*
X375820Y204044D01*
X375837Y203961D01*
X375845Y203869D01*
X375862Y203769D01*
X375870Y203561D01*
Y203494D01*
X375862Y203411D01*
X375854Y203319D01*
X375837Y203211D01*
X375812Y203103D01*
X375779Y202994D01*
X375737Y202903D01*
X375728Y202894D01*
X375712Y202861D01*
X375687Y202828D01*
X375645Y202778D01*
X375595Y202719D01*
X375528Y202661D01*
X375462Y202611D01*
X375387Y202569D01*
X375379D01*
X375337Y202553D01*
X375279Y202544D01*
X375187Y202528D01*
X375129Y202519D01*
X375062Y202511D01*
X374987Y202503D01*
X374895Y202494D01*
X374804Y202486D01*
X374695D01*
X374579Y202478D01*
X374454D01*
X371780D01*
Y201895D01*
X371171D01*
Y202478D01*
X370030D01*
X369555Y203261D01*
X371171D01*
Y204052D01*
X371780D01*
Y203261D01*
X374496D01*
X374512D01*
X374554D01*
X374612D01*
X374679Y203269D01*
X374754D01*
X374829Y203277D01*
X374887Y203286D01*
X374937Y203294D01*
X374954Y203302D01*
X374987Y203328D01*
X375037Y203369D01*
X375087Y203428D01*
Y203436D01*
X375095Y203444D01*
X375104Y203469D01*
X375112Y203503D01*
X375129Y203586D01*
X375137Y203702D01*
Y203794D01*
X375129Y203844D01*
Y203911D01*
X375120Y203977D01*
X375112Y204052D01*
X375803Y204161D01*
Y204144D01*
D02*
G37*
G36*
X375812Y200412D02*
X375129D01*
X375137Y200403D01*
X375162Y200387D01*
X375204Y200353D01*
X375254Y200312D01*
X375312Y200253D01*
X375379Y200187D01*
X375445Y200112D01*
X375520Y200020D01*
X375595Y199920D01*
X375662Y199812D01*
X375728Y199687D01*
X375787Y199562D01*
X375837Y199420D01*
X375878Y199270D01*
X375903Y199104D01*
X375912Y198937D01*
Y198870D01*
X375903Y198787D01*
X375895Y198687D01*
X375878Y198570D01*
X375845Y198445D01*
X375812Y198304D01*
X375762Y198171D01*
X375754Y198154D01*
X375737Y198112D01*
X375695Y198046D01*
X375653Y197971D01*
X375595Y197887D01*
X375528Y197796D01*
X375454Y197712D01*
X375370Y197637D01*
X375362Y197629D01*
X375329Y197612D01*
X375279Y197579D01*
X375204Y197546D01*
X375120Y197504D01*
X375020Y197462D01*
X374904Y197429D01*
X374779Y197396D01*
X374770D01*
X374737Y197387D01*
X374679Y197379D01*
X374595D01*
X374496Y197371D01*
X374370Y197362D01*
X374221Y197354D01*
X374046D01*
X371171D01*
Y198137D01*
X373746D01*
X373754D01*
X373771D01*
X373804D01*
X373846D01*
X373896D01*
X373954D01*
X374079Y198146D01*
X374221D01*
X374354Y198154D01*
X374479Y198162D01*
X374537Y198171D01*
X374579Y198179D01*
X374595D01*
X374629Y198195D01*
X374687Y198212D01*
X374754Y198246D01*
X374829Y198287D01*
X374912Y198346D01*
X374987Y198412D01*
X375062Y198495D01*
X375070Y198504D01*
X375087Y198537D01*
X375120Y198587D01*
X375145Y198662D01*
X375179Y198745D01*
X375212Y198845D01*
X375229Y198962D01*
X375237Y199087D01*
Y199145D01*
X375229Y199220D01*
X375212Y199304D01*
X375195Y199403D01*
X375162Y199520D01*
X375120Y199637D01*
X375062Y199753D01*
X375054Y199770D01*
X375029Y199803D01*
X374987Y199862D01*
X374929Y199928D01*
X374862Y200003D01*
X374779Y200070D01*
X374679Y200137D01*
X374570Y200195D01*
X374554Y200203D01*
X374512Y200220D01*
X374437Y200237D01*
X374337Y200262D01*
X374212Y200287D01*
X374054Y200312D01*
X373871Y200320D01*
X373662Y200328D01*
X371171D01*
Y201111D01*
X375812D01*
Y200412D01*
D02*
G37*
G36*
X373654Y196438D02*
X373737Y196429D01*
X373837Y196421D01*
X373937Y196413D01*
X374162Y196379D01*
X374395Y196329D01*
X374629Y196263D01*
X374737Y196221D01*
X374837Y196171D01*
X374845D01*
X374862Y196163D01*
X374887Y196146D01*
X374920Y196121D01*
X375012Y196063D01*
X375129Y195971D01*
X375254Y195863D01*
X375387Y195730D01*
X375512Y195571D01*
X375629Y195388D01*
Y195380D01*
X375637Y195363D01*
X375653Y195338D01*
X375670Y195296D01*
X375695Y195255D01*
X375720Y195196D01*
X375770Y195055D01*
X375820Y194896D01*
X375870Y194705D01*
X375903Y194496D01*
X375912Y194272D01*
Y194230D01*
X375903Y194180D01*
Y194113D01*
X375895Y194030D01*
X375878Y193938D01*
X375862Y193830D01*
X375837Y193713D01*
X375803Y193588D01*
X375762Y193463D01*
X375712Y193338D01*
X375653Y193205D01*
X375578Y193072D01*
X375495Y192947D01*
X375404Y192822D01*
X375295Y192705D01*
X375287Y192697D01*
X375262Y192680D01*
X375229Y192647D01*
X375179Y192614D01*
X375112Y192564D01*
X375037Y192514D01*
X374945Y192464D01*
X374837Y192405D01*
X374712Y192347D01*
X374579Y192297D01*
X374437Y192247D01*
X374271Y192197D01*
X374096Y192164D01*
X373912Y192130D01*
X373712Y192114D01*
X373496Y192105D01*
X373479D01*
X373437D01*
X373371Y192114D01*
X373287D01*
X373179Y192130D01*
X373054Y192147D01*
X372921Y192164D01*
X372779Y192197D01*
X372621Y192230D01*
X372463Y192280D01*
X372304Y192339D01*
X372146Y192405D01*
X371996Y192489D01*
X371846Y192580D01*
X371713Y192689D01*
X371588Y192814D01*
X371580Y192822D01*
X371563Y192839D01*
X371538Y192872D01*
X371505Y192922D01*
X371471Y192980D01*
X371421Y193047D01*
X371380Y193130D01*
X371330Y193222D01*
X371280Y193322D01*
X371238Y193430D01*
X371188Y193555D01*
X371155Y193680D01*
X371121Y193822D01*
X371096Y193963D01*
X371080Y194113D01*
X371071Y194272D01*
Y194363D01*
X371080Y194430D01*
X371088Y194513D01*
X371105Y194605D01*
X371121Y194713D01*
X371146Y194830D01*
X371180Y194946D01*
X371230Y195071D01*
X371280Y195205D01*
X371338Y195338D01*
X371413Y195471D01*
X371496Y195596D01*
X371596Y195721D01*
X371704Y195838D01*
X371713Y195846D01*
X371730Y195863D01*
X371771Y195896D01*
X371821Y195929D01*
X371880Y195979D01*
X371963Y196029D01*
X372054Y196088D01*
X372154Y196146D01*
X372271Y196196D01*
X372396Y196254D01*
X372538Y196304D01*
X372696Y196354D01*
X372863Y196388D01*
X373037Y196421D01*
X373229Y196438D01*
X373429Y196446D01*
X373437D01*
X373471D01*
X373512D01*
X373579D01*
X373654Y196438D01*
D02*
G37*
G36*
X373829Y191439D02*
X373887Y191422D01*
X373962Y191406D01*
X374046Y191372D01*
X374146Y191331D01*
X374254Y191289D01*
X374379Y191231D01*
X374504Y191172D01*
X374637Y191097D01*
X374762Y191022D01*
X374895Y190931D01*
X375029Y190839D01*
X375154Y190731D01*
X375270Y190614D01*
X375379Y190489D01*
X375387Y190481D01*
X375404Y190456D01*
X375429Y190422D01*
X375462Y190364D01*
X375504Y190298D01*
X375554Y190214D01*
X375595Y190123D01*
X375645Y190023D01*
X375704Y189898D01*
X375745Y189773D01*
X375795Y189631D01*
X375837Y189481D01*
X375870Y189323D01*
X375895Y189156D01*
X375912Y188981D01*
X375920Y188798D01*
Y188698D01*
X375912Y188623D01*
X375903Y188540D01*
X375895Y188431D01*
X375887Y188323D01*
X375870Y188198D01*
X375820Y187931D01*
X375745Y187648D01*
X375695Y187507D01*
X375637Y187365D01*
X375578Y187232D01*
X375504Y187107D01*
X375495Y187098D01*
X375487Y187082D01*
X375462Y187048D01*
X375420Y186998D01*
X375379Y186948D01*
X375329Y186882D01*
X375262Y186815D01*
X375187Y186740D01*
X375112Y186657D01*
X375020Y186582D01*
X374920Y186499D01*
X374804Y186415D01*
X374687Y186332D01*
X374562Y186257D01*
X374421Y186182D01*
X374279Y186115D01*
X374271D01*
X374245Y186099D01*
X374196Y186082D01*
X374137Y186065D01*
X374062Y186040D01*
X373979Y186007D01*
X373879Y185982D01*
X373762Y185949D01*
X373637Y185915D01*
X373504Y185890D01*
X373362Y185857D01*
X373221Y185832D01*
X372896Y185799D01*
X372563Y185782D01*
X372554D01*
X372521D01*
X372463D01*
X372396Y185790D01*
X372304D01*
X372204Y185799D01*
X372096Y185815D01*
X371971Y185832D01*
X371838Y185849D01*
X371696Y185874D01*
X371405Y185940D01*
X371113Y186032D01*
X370963Y186090D01*
X370821Y186157D01*
X370813Y186165D01*
X370788Y186174D01*
X370746Y186199D01*
X370696Y186232D01*
X370638Y186265D01*
X370563Y186315D01*
X370488Y186374D01*
X370396Y186440D01*
X370213Y186590D01*
X370030Y186782D01*
X369847Y186998D01*
X369763Y187123D01*
X369688Y187248D01*
X369680Y187257D01*
X369672Y187282D01*
X369655Y187323D01*
X369630Y187373D01*
X369597Y187440D01*
X369563Y187515D01*
X369530Y187607D01*
X369488Y187707D01*
X369455Y187823D01*
X369422Y187940D01*
X369355Y188206D01*
X369314Y188498D01*
X369297Y188648D01*
Y188898D01*
X369305Y188965D01*
X369314Y189048D01*
X369322Y189148D01*
X369338Y189256D01*
X369355Y189373D01*
X369413Y189623D01*
X369455Y189756D01*
X369505Y189898D01*
X369563Y190031D01*
X369622Y190164D01*
X369705Y190298D01*
X369788Y190422D01*
X369797Y190431D01*
X369813Y190448D01*
X369838Y190489D01*
X369880Y190531D01*
X369930Y190581D01*
X369988Y190647D01*
X370063Y190714D01*
X370147Y190789D01*
X370238Y190864D01*
X370338Y190939D01*
X370455Y191014D01*
X370572Y191089D01*
X370705Y191164D01*
X370846Y191231D01*
X371005Y191297D01*
X371163Y191347D01*
X371363Y190514D01*
X371355D01*
X371330Y190506D01*
X371296Y190489D01*
X371246Y190473D01*
X371188Y190448D01*
X371121Y190422D01*
X370971Y190347D01*
X370805Y190256D01*
X370638Y190148D01*
X370480Y190014D01*
X370413Y189939D01*
X370346Y189864D01*
Y189856D01*
X370330Y189848D01*
X370313Y189823D01*
X370297Y189789D01*
X370271Y189748D01*
X370247Y189698D01*
X370180Y189573D01*
X370122Y189414D01*
X370072Y189231D01*
X370038Y189023D01*
X370022Y188790D01*
Y188715D01*
X370030Y188665D01*
Y188606D01*
X370038Y188531D01*
X370055Y188448D01*
X370063Y188356D01*
X370105Y188165D01*
X370172Y187957D01*
X370263Y187748D01*
X370313Y187648D01*
X370380Y187548D01*
Y187540D01*
X370396Y187523D01*
X370413Y187498D01*
X370447Y187465D01*
X370522Y187382D01*
X370630Y187282D01*
X370763Y187165D01*
X370930Y187048D01*
X371113Y186940D01*
X371330Y186857D01*
X371338D01*
X371355Y186848D01*
X371388Y186840D01*
X371430Y186823D01*
X371488Y186807D01*
X371555Y186790D01*
X371629Y186773D01*
X371704Y186757D01*
X371896Y186723D01*
X372104Y186690D01*
X372329Y186665D01*
X372563Y186657D01*
X372571D01*
X372596D01*
X372638D01*
X372696D01*
X372771Y186665D01*
X372854Y186674D01*
X372946D01*
X373046Y186690D01*
X373271Y186715D01*
X373504Y186757D01*
X373754Y186815D01*
X373987Y186890D01*
X373996D01*
X374012Y186898D01*
X374046Y186915D01*
X374087Y186940D01*
X374137Y186965D01*
X374196Y186990D01*
X374329Y187073D01*
X374479Y187182D01*
X374629Y187307D01*
X374770Y187457D01*
X374895Y187632D01*
Y187640D01*
X374912Y187656D01*
X374920Y187682D01*
X374945Y187723D01*
X374962Y187765D01*
X374987Y187823D01*
X375045Y187957D01*
X375104Y188123D01*
X375145Y188306D01*
X375179Y188506D01*
X375195Y188723D01*
Y188790D01*
X375187Y188840D01*
X375179Y188906D01*
X375170Y188973D01*
X375162Y189056D01*
X375145Y189139D01*
X375095Y189331D01*
X375020Y189531D01*
X374979Y189639D01*
X374920Y189739D01*
X374862Y189839D01*
X374787Y189931D01*
X374779Y189939D01*
X374770Y189956D01*
X374745Y189981D01*
X374712Y190014D01*
X374670Y190048D01*
X374612Y190098D01*
X374554Y190148D01*
X374479Y190198D01*
X374404Y190256D01*
X374312Y190314D01*
X374212Y190364D01*
X374104Y190422D01*
X373979Y190473D01*
X373854Y190522D01*
X373721Y190564D01*
X373571Y190606D01*
X373787Y191456D01*
X373796D01*
X373829Y191439D01*
D02*
G37*
G36*
X229762Y192464D02*
X224755D01*
X224763Y192448D01*
X224796Y192414D01*
X224855Y192348D01*
X224921Y192264D01*
X225005Y192156D01*
X225096Y192023D01*
X225196Y191881D01*
X225296Y191715D01*
Y191706D01*
X225305Y191698D01*
X225321Y191673D01*
X225338Y191640D01*
X225388Y191548D01*
X225446Y191440D01*
X225513Y191315D01*
X225579Y191173D01*
X225646Y191031D01*
X225704Y190890D01*
X224938D01*
Y190898D01*
X224921Y190923D01*
X224905Y190956D01*
X224880Y190998D01*
X224855Y191056D01*
X224813Y191123D01*
X224730Y191281D01*
X224621Y191456D01*
X224488Y191656D01*
X224347Y191848D01*
X224188Y192040D01*
X224180Y192048D01*
X224172Y192064D01*
X224146Y192090D01*
X224113Y192123D01*
X224030Y192206D01*
X223913Y192314D01*
X223788Y192423D01*
X223638Y192539D01*
X223488Y192648D01*
X223330Y192739D01*
Y193248D01*
X229762D01*
Y192464D01*
D02*
G37*
G36*
X227304Y189182D02*
X227396D01*
X227504Y189174D01*
X227612Y189165D01*
X227862Y189132D01*
X228120Y189099D01*
X228370Y189040D01*
X228487Y189007D01*
X228595Y188965D01*
X228604D01*
X228620Y188957D01*
X228654Y188940D01*
X228687Y188924D01*
X228737Y188899D01*
X228795Y188865D01*
X228920Y188782D01*
X229070Y188674D01*
X229220Y188540D01*
X229379Y188374D01*
X229454Y188274D01*
X229520Y188174D01*
Y188165D01*
X229537Y188149D01*
X229554Y188116D01*
X229578Y188074D01*
X229604Y188015D01*
X229629Y187949D01*
X229662Y187866D01*
X229695Y187774D01*
X229728Y187674D01*
X229762Y187557D01*
X229787Y187441D01*
X229812Y187307D01*
X229837Y187166D01*
X229853Y187016D01*
X229862Y186849D01*
X229870Y186683D01*
Y186599D01*
X229862Y186533D01*
Y186458D01*
X229853Y186366D01*
X229845Y186266D01*
X229828Y186158D01*
X229795Y185924D01*
X229737Y185683D01*
X229662Y185433D01*
X229562Y185208D01*
Y185200D01*
X229545Y185183D01*
X229529Y185150D01*
X229503Y185116D01*
X229437Y185016D01*
X229337Y184891D01*
X229212Y184758D01*
X229054Y184625D01*
X228879Y184500D01*
X228670Y184391D01*
X228662D01*
X228645Y184383D01*
X228612Y184366D01*
X228562Y184358D01*
X228504Y184333D01*
X228429Y184317D01*
X228346Y184291D01*
X228246Y184275D01*
X228137Y184250D01*
X228020Y184225D01*
X227887Y184208D01*
X227746Y184191D01*
X227587Y184175D01*
X227421Y184158D01*
X227246Y184150D01*
X227062D01*
X223355D01*
Y185000D01*
X227054D01*
X227062D01*
X227087D01*
X227137D01*
X227187D01*
X227262Y185008D01*
X227337D01*
X227429Y185016D01*
X227521D01*
X227721Y185033D01*
X227929Y185066D01*
X228120Y185100D01*
X228204Y185125D01*
X228287Y185150D01*
X228295D01*
X228304Y185158D01*
X228354Y185183D01*
X228420Y185216D01*
X228512Y185275D01*
X228604Y185350D01*
X228712Y185441D01*
X228804Y185550D01*
X228895Y185683D01*
Y185691D01*
X228904Y185700D01*
X228929Y185749D01*
X228962Y185833D01*
X228995Y185941D01*
X229037Y186074D01*
X229070Y186233D01*
X229095Y186408D01*
X229104Y186608D01*
Y186699D01*
X229095Y186758D01*
X229087Y186833D01*
X229079Y186924D01*
X229070Y187024D01*
X229054Y187124D01*
X229004Y187341D01*
X228929Y187566D01*
X228879Y187666D01*
X228820Y187766D01*
X228762Y187857D01*
X228687Y187941D01*
X228679Y187949D01*
X228662Y187957D01*
X228637Y187974D01*
X228604Y188007D01*
X228554Y188032D01*
X228487Y188065D01*
X228412Y188107D01*
X228321Y188141D01*
X228221Y188182D01*
X228104Y188216D01*
X227971Y188249D01*
X227821Y188282D01*
X227654Y188307D01*
X227471Y188324D01*
X227271Y188332D01*
X227054Y188340D01*
X223355D01*
Y189190D01*
X227062D01*
X227071D01*
X227104D01*
X227154D01*
X227221D01*
X227304Y189182D01*
D02*
G37*
G36*
X338982Y206423D02*
X333975D01*
X333983Y206406D01*
X334016Y206373D01*
X334075Y206306D01*
X334141Y206223D01*
X334225Y206115D01*
X334316Y205981D01*
X334416Y205840D01*
X334516Y205673D01*
Y205665D01*
X334525Y205656D01*
X334541Y205631D01*
X334558Y205598D01*
X334608Y205506D01*
X334666Y205398D01*
X334733Y205273D01*
X334799Y205131D01*
X334866Y204990D01*
X334925Y204848D01*
X334158D01*
Y204857D01*
X334141Y204882D01*
X334125Y204915D01*
X334100Y204956D01*
X334075Y205015D01*
X334033Y205082D01*
X333950Y205240D01*
X333841Y205415D01*
X333708Y205615D01*
X333567Y205806D01*
X333408Y205998D01*
X333400Y206006D01*
X333391Y206023D01*
X333367Y206048D01*
X333333Y206081D01*
X333250Y206165D01*
X333133Y206273D01*
X333008Y206381D01*
X332858Y206498D01*
X332708Y206606D01*
X332550Y206698D01*
Y207206D01*
X338982D01*
Y206423D01*
D02*
G37*
G36*
X338973Y203782D02*
X338982Y203740D01*
X338990Y203682D01*
X339007Y203599D01*
X339015Y203507D01*
X339032Y203407D01*
X339040Y203199D01*
Y203132D01*
X339032Y203049D01*
X339023Y202957D01*
X339007Y202849D01*
X338982Y202740D01*
X338948Y202632D01*
X338907Y202540D01*
X338899Y202532D01*
X338882Y202499D01*
X338857Y202465D01*
X338815Y202416D01*
X338765Y202357D01*
X338699Y202299D01*
X338632Y202249D01*
X338557Y202207D01*
X338549D01*
X338507Y202191D01*
X338449Y202182D01*
X338357Y202166D01*
X338299Y202157D01*
X338232Y202149D01*
X338157Y202141D01*
X338065Y202132D01*
X337974Y202124D01*
X337865D01*
X337749Y202116D01*
X337624D01*
X334949D01*
Y201532D01*
X334341D01*
Y202116D01*
X333200D01*
X332725Y202899D01*
X334341D01*
Y203690D01*
X334949D01*
Y202899D01*
X337665D01*
X337682D01*
X337724D01*
X337782D01*
X337849Y202907D01*
X337924D01*
X337999Y202915D01*
X338057Y202924D01*
X338107Y202932D01*
X338124Y202940D01*
X338157Y202965D01*
X338207Y203007D01*
X338257Y203065D01*
Y203074D01*
X338265Y203082D01*
X338274Y203107D01*
X338282Y203140D01*
X338299Y203224D01*
X338307Y203340D01*
Y203432D01*
X338299Y203482D01*
Y203549D01*
X338290Y203615D01*
X338282Y203690D01*
X338973Y203799D01*
Y203782D01*
D02*
G37*
G36*
X338982Y200049D02*
X338299D01*
X338307Y200041D01*
X338332Y200025D01*
X338374Y199991D01*
X338424Y199949D01*
X338482Y199891D01*
X338549Y199825D01*
X338615Y199750D01*
X338690Y199658D01*
X338765Y199558D01*
X338832Y199450D01*
X338899Y199325D01*
X338957Y199200D01*
X339007Y199058D01*
X339048Y198908D01*
X339073Y198741D01*
X339082Y198575D01*
Y198508D01*
X339073Y198425D01*
X339065Y198325D01*
X339048Y198208D01*
X339015Y198083D01*
X338982Y197942D01*
X338932Y197808D01*
X338923Y197792D01*
X338907Y197750D01*
X338865Y197683D01*
X338824Y197608D01*
X338765Y197525D01*
X338699Y197433D01*
X338624Y197350D01*
X338540Y197275D01*
X338532Y197267D01*
X338499Y197250D01*
X338449Y197217D01*
X338374Y197183D01*
X338290Y197142D01*
X338190Y197100D01*
X338074Y197067D01*
X337949Y197034D01*
X337940D01*
X337907Y197025D01*
X337849Y197017D01*
X337765D01*
X337665Y197009D01*
X337541Y197000D01*
X337391Y196992D01*
X337216D01*
X334341D01*
Y197775D01*
X336916D01*
X336924D01*
X336941D01*
X336974D01*
X337016D01*
X337066D01*
X337124D01*
X337249Y197783D01*
X337391D01*
X337524Y197792D01*
X337649Y197800D01*
X337707Y197808D01*
X337749Y197817D01*
X337765D01*
X337799Y197833D01*
X337857Y197850D01*
X337924Y197883D01*
X337999Y197925D01*
X338082Y197983D01*
X338157Y198050D01*
X338232Y198133D01*
X338240Y198142D01*
X338257Y198175D01*
X338290Y198225D01*
X338315Y198300D01*
X338349Y198383D01*
X338382Y198483D01*
X338399Y198600D01*
X338407Y198725D01*
Y198783D01*
X338399Y198858D01*
X338382Y198941D01*
X338365Y199041D01*
X338332Y199158D01*
X338290Y199275D01*
X338232Y199391D01*
X338224Y199408D01*
X338199Y199441D01*
X338157Y199500D01*
X338099Y199566D01*
X338032Y199641D01*
X337949Y199708D01*
X337849Y199774D01*
X337740Y199833D01*
X337724Y199841D01*
X337682Y199858D01*
X337607Y199874D01*
X337507Y199900D01*
X337382Y199925D01*
X337224Y199949D01*
X337041Y199958D01*
X336832Y199966D01*
X334341D01*
Y200749D01*
X338982D01*
Y200049D01*
D02*
G37*
G36*
X336824Y196075D02*
X336907Y196067D01*
X337007Y196059D01*
X337107Y196050D01*
X337332Y196017D01*
X337565Y195967D01*
X337799Y195900D01*
X337907Y195859D01*
X338007Y195809D01*
X338015D01*
X338032Y195800D01*
X338057Y195784D01*
X338090Y195759D01*
X338182Y195701D01*
X338299Y195609D01*
X338424Y195501D01*
X338557Y195367D01*
X338682Y195209D01*
X338798Y195026D01*
Y195017D01*
X338807Y195001D01*
X338824Y194976D01*
X338840Y194934D01*
X338865Y194892D01*
X338890Y194834D01*
X338940Y194692D01*
X338990Y194534D01*
X339040Y194343D01*
X339073Y194134D01*
X339082Y193909D01*
Y193868D01*
X339073Y193818D01*
Y193751D01*
X339065Y193668D01*
X339048Y193576D01*
X339032Y193468D01*
X339007Y193351D01*
X338973Y193226D01*
X338932Y193101D01*
X338882Y192976D01*
X338824Y192843D01*
X338749Y192710D01*
X338665Y192585D01*
X338573Y192460D01*
X338465Y192343D01*
X338457Y192335D01*
X338432Y192318D01*
X338399Y192285D01*
X338349Y192251D01*
X338282Y192201D01*
X338207Y192152D01*
X338115Y192101D01*
X338007Y192043D01*
X337882Y191985D01*
X337749Y191935D01*
X337607Y191885D01*
X337440Y191835D01*
X337266Y191802D01*
X337082Y191768D01*
X336882Y191752D01*
X336666Y191743D01*
X336649D01*
X336607D01*
X336541Y191752D01*
X336457D01*
X336349Y191768D01*
X336224Y191785D01*
X336091Y191802D01*
X335949Y191835D01*
X335791Y191868D01*
X335633Y191918D01*
X335474Y191977D01*
X335316Y192043D01*
X335166Y192127D01*
X335016Y192218D01*
X334883Y192326D01*
X334758Y192451D01*
X334749Y192460D01*
X334733Y192476D01*
X334708Y192510D01*
X334674Y192560D01*
X334641Y192618D01*
X334591Y192685D01*
X334550Y192768D01*
X334500Y192860D01*
X334450Y192960D01*
X334408Y193068D01*
X334358Y193193D01*
X334325Y193318D01*
X334291Y193459D01*
X334266Y193601D01*
X334250Y193751D01*
X334241Y193909D01*
Y194001D01*
X334250Y194068D01*
X334258Y194151D01*
X334275Y194243D01*
X334291Y194351D01*
X334316Y194468D01*
X334350Y194584D01*
X334400Y194709D01*
X334450Y194842D01*
X334508Y194976D01*
X334583Y195109D01*
X334666Y195234D01*
X334766Y195359D01*
X334874Y195476D01*
X334883Y195484D01*
X334899Y195501D01*
X334941Y195534D01*
X334991Y195567D01*
X335049Y195617D01*
X335133Y195667D01*
X335224Y195726D01*
X335324Y195784D01*
X335441Y195834D01*
X335566Y195892D01*
X335708Y195942D01*
X335866Y195992D01*
X336032Y196026D01*
X336208Y196059D01*
X336399Y196075D01*
X336599Y196084D01*
X336607D01*
X336641D01*
X336682D01*
X336749D01*
X336824Y196075D01*
D02*
G37*
G36*
X336999Y191077D02*
X337057Y191060D01*
X337132Y191043D01*
X337216Y191010D01*
X337315Y190968D01*
X337424Y190927D01*
X337549Y190868D01*
X337674Y190810D01*
X337807Y190735D01*
X337932Y190660D01*
X338065Y190569D01*
X338199Y190477D01*
X338324Y190369D01*
X338440Y190252D01*
X338549Y190127D01*
X338557Y190119D01*
X338573Y190094D01*
X338599Y190060D01*
X338632Y190002D01*
X338674Y189935D01*
X338723Y189852D01*
X338765Y189760D01*
X338815Y189660D01*
X338873Y189536D01*
X338915Y189410D01*
X338965Y189269D01*
X339007Y189119D01*
X339040Y188961D01*
X339065Y188794D01*
X339082Y188619D01*
X339090Y188436D01*
Y188336D01*
X339082Y188261D01*
X339073Y188178D01*
X339065Y188069D01*
X339057Y187961D01*
X339040Y187836D01*
X338990Y187569D01*
X338915Y187286D01*
X338865Y187144D01*
X338807Y187003D01*
X338749Y186870D01*
X338674Y186744D01*
X338665Y186736D01*
X338657Y186719D01*
X338632Y186686D01*
X338590Y186636D01*
X338549Y186586D01*
X338499Y186520D01*
X338432Y186453D01*
X338357Y186378D01*
X338282Y186295D01*
X338190Y186220D01*
X338090Y186136D01*
X337974Y186053D01*
X337857Y185970D01*
X337732Y185895D01*
X337590Y185820D01*
X337449Y185753D01*
X337440D01*
X337416Y185737D01*
X337365Y185720D01*
X337307Y185703D01*
X337232Y185678D01*
X337149Y185645D01*
X337049Y185620D01*
X336932Y185586D01*
X336807Y185553D01*
X336674Y185528D01*
X336532Y185495D01*
X336391Y185470D01*
X336066Y185436D01*
X335733Y185420D01*
X335724D01*
X335691D01*
X335633D01*
X335566Y185428D01*
X335474D01*
X335374Y185436D01*
X335266Y185453D01*
X335141Y185470D01*
X335008Y185487D01*
X334866Y185511D01*
X334575Y185578D01*
X334283Y185670D01*
X334133Y185728D01*
X333991Y185795D01*
X333983Y185803D01*
X333958Y185811D01*
X333916Y185836D01*
X333866Y185870D01*
X333808Y185903D01*
X333733Y185953D01*
X333658Y186011D01*
X333567Y186078D01*
X333383Y186228D01*
X333200Y186420D01*
X333017Y186636D01*
X332933Y186761D01*
X332858Y186886D01*
X332850Y186894D01*
X332842Y186919D01*
X332825Y186961D01*
X332800Y187011D01*
X332767Y187078D01*
X332733Y187153D01*
X332700Y187244D01*
X332658Y187344D01*
X332625Y187461D01*
X332592Y187578D01*
X332525Y187844D01*
X332483Y188136D01*
X332467Y188286D01*
Y188536D01*
X332475Y188602D01*
X332483Y188686D01*
X332492Y188786D01*
X332508Y188894D01*
X332525Y189011D01*
X332583Y189261D01*
X332625Y189394D01*
X332675Y189536D01*
X332733Y189669D01*
X332792Y189802D01*
X332875Y189935D01*
X332958Y190060D01*
X332967Y190069D01*
X332983Y190085D01*
X333008Y190127D01*
X333050Y190169D01*
X333100Y190219D01*
X333158Y190285D01*
X333233Y190352D01*
X333317Y190427D01*
X333408Y190502D01*
X333508Y190577D01*
X333625Y190652D01*
X333741Y190727D01*
X333875Y190802D01*
X334016Y190868D01*
X334175Y190935D01*
X334333Y190985D01*
X334533Y190152D01*
X334525D01*
X334500Y190144D01*
X334466Y190127D01*
X334416Y190110D01*
X334358Y190085D01*
X334291Y190060D01*
X334141Y189985D01*
X333975Y189894D01*
X333808Y189785D01*
X333650Y189652D01*
X333583Y189577D01*
X333517Y189502D01*
Y189494D01*
X333500Y189485D01*
X333483Y189461D01*
X333466Y189427D01*
X333442Y189386D01*
X333416Y189335D01*
X333350Y189211D01*
X333292Y189052D01*
X333242Y188869D01*
X333208Y188661D01*
X333192Y188427D01*
Y188353D01*
X333200Y188302D01*
Y188244D01*
X333208Y188169D01*
X333225Y188086D01*
X333233Y187994D01*
X333275Y187803D01*
X333341Y187594D01*
X333433Y187386D01*
X333483Y187286D01*
X333550Y187186D01*
Y187178D01*
X333567Y187161D01*
X333583Y187136D01*
X333616Y187103D01*
X333691Y187020D01*
X333800Y186919D01*
X333933Y186803D01*
X334100Y186686D01*
X334283Y186578D01*
X334500Y186495D01*
X334508D01*
X334525Y186486D01*
X334558Y186478D01*
X334600Y186461D01*
X334658Y186445D01*
X334725Y186428D01*
X334799Y186411D01*
X334874Y186395D01*
X335066Y186361D01*
X335274Y186328D01*
X335499Y186303D01*
X335733Y186295D01*
X335741D01*
X335766D01*
X335808D01*
X335866D01*
X335941Y186303D01*
X336024Y186311D01*
X336116D01*
X336216Y186328D01*
X336441Y186353D01*
X336674Y186395D01*
X336924Y186453D01*
X337157Y186528D01*
X337166D01*
X337182Y186536D01*
X337216Y186553D01*
X337257Y186578D01*
X337307Y186603D01*
X337365Y186628D01*
X337499Y186711D01*
X337649Y186819D01*
X337799Y186945D01*
X337940Y187094D01*
X338065Y187269D01*
Y187278D01*
X338082Y187294D01*
X338090Y187319D01*
X338115Y187361D01*
X338132Y187403D01*
X338157Y187461D01*
X338215Y187594D01*
X338274Y187761D01*
X338315Y187944D01*
X338349Y188144D01*
X338365Y188361D01*
Y188427D01*
X338357Y188477D01*
X338349Y188544D01*
X338340Y188611D01*
X338332Y188694D01*
X338315Y188777D01*
X338265Y188969D01*
X338190Y189169D01*
X338149Y189277D01*
X338090Y189377D01*
X338032Y189477D01*
X337957Y189569D01*
X337949Y189577D01*
X337940Y189594D01*
X337915Y189619D01*
X337882Y189652D01*
X337840Y189685D01*
X337782Y189735D01*
X337724Y189785D01*
X337649Y189835D01*
X337574Y189894D01*
X337482Y189952D01*
X337382Y190002D01*
X337274Y190060D01*
X337149Y190110D01*
X337024Y190160D01*
X336891Y190202D01*
X336741Y190244D01*
X336957Y191093D01*
X336966D01*
X336999Y191077D01*
D02*
G37*
%LPC*%
G36*
X373637Y195638D02*
X373471D01*
X373462D01*
X373429D01*
X373387D01*
X373329Y195630D01*
X373254D01*
X373179Y195621D01*
X373088Y195604D01*
X372988Y195588D01*
X372779Y195546D01*
X372563Y195471D01*
X372354Y195380D01*
X372254Y195313D01*
X372171Y195246D01*
X372163Y195238D01*
X372154Y195230D01*
X372129Y195205D01*
X372104Y195180D01*
X372029Y195088D01*
X371946Y194980D01*
X371863Y194838D01*
X371788Y194671D01*
X371738Y194480D01*
X371730Y194380D01*
X371721Y194272D01*
Y194213D01*
X371730Y194172D01*
X371738Y194122D01*
X371746Y194063D01*
X371780Y193930D01*
X371829Y193780D01*
X371904Y193613D01*
X371954Y193530D01*
X372013Y193455D01*
X372088Y193372D01*
X372163Y193297D01*
X372171D01*
X372179Y193280D01*
X372213Y193263D01*
X372246Y193239D01*
X372296Y193205D01*
X372346Y193172D01*
X372413Y193139D01*
X372496Y193105D01*
X372579Y193072D01*
X372679Y193039D01*
X372788Y193005D01*
X372912Y192972D01*
X373037Y192947D01*
X373179Y192930D01*
X373337Y192922D01*
X373496Y192913D01*
X373504D01*
X373537D01*
X373579D01*
X373637Y192922D01*
X373712D01*
X373796Y192930D01*
X373896Y192947D01*
X373996Y192964D01*
X374204Y193005D01*
X374429Y193072D01*
X374637Y193172D01*
X374729Y193230D01*
X374820Y193297D01*
X374829Y193305D01*
X374837Y193313D01*
X374862Y193338D01*
X374887Y193363D01*
X374962Y193455D01*
X375037Y193563D01*
X375120Y193705D01*
X375195Y193872D01*
X375245Y194063D01*
X375254Y194163D01*
X375262Y194272D01*
Y194330D01*
X375254Y194371D01*
X375245Y194422D01*
X375237Y194480D01*
X375204Y194613D01*
X375154Y194763D01*
X375079Y194930D01*
X375029Y195013D01*
X374962Y195096D01*
X374895Y195171D01*
X374820Y195246D01*
X374812Y195255D01*
X374795Y195263D01*
X374770Y195280D01*
X374737Y195305D01*
X374687Y195338D01*
X374629Y195371D01*
X374562Y195405D01*
X374487Y195446D01*
X374395Y195480D01*
X374296Y195513D01*
X374187Y195546D01*
X374062Y195579D01*
X373929Y195604D01*
X373787Y195621D01*
X373637Y195638D01*
D02*
G37*
G36*
X336807Y195276D02*
X336641D01*
X336632D01*
X336599D01*
X336557D01*
X336499Y195267D01*
X336424D01*
X336349Y195259D01*
X336258Y195242D01*
X336157Y195226D01*
X335949Y195184D01*
X335733Y195109D01*
X335524Y195017D01*
X335424Y194951D01*
X335341Y194884D01*
X335333Y194876D01*
X335324Y194867D01*
X335299Y194842D01*
X335274Y194818D01*
X335199Y194726D01*
X335116Y194618D01*
X335033Y194476D01*
X334958Y194309D01*
X334908Y194118D01*
X334899Y194018D01*
X334891Y193909D01*
Y193851D01*
X334899Y193809D01*
X334908Y193759D01*
X334916Y193701D01*
X334949Y193568D01*
X335000Y193418D01*
X335074Y193251D01*
X335124Y193168D01*
X335183Y193093D01*
X335258Y193010D01*
X335333Y192935D01*
X335341D01*
X335349Y192918D01*
X335383Y192901D01*
X335416Y192876D01*
X335466Y192843D01*
X335516Y192810D01*
X335583Y192776D01*
X335666Y192743D01*
X335749Y192710D01*
X335849Y192676D01*
X335957Y192643D01*
X336082Y192610D01*
X336208Y192585D01*
X336349Y192568D01*
X336507Y192560D01*
X336666Y192551D01*
X336674D01*
X336707D01*
X336749D01*
X336807Y192560D01*
X336882D01*
X336966Y192568D01*
X337066Y192585D01*
X337166Y192601D01*
X337374Y192643D01*
X337599Y192710D01*
X337807Y192810D01*
X337899Y192868D01*
X337990Y192935D01*
X337999Y192943D01*
X338007Y192951D01*
X338032Y192976D01*
X338057Y193001D01*
X338132Y193093D01*
X338207Y193201D01*
X338290Y193343D01*
X338365Y193510D01*
X338415Y193701D01*
X338424Y193801D01*
X338432Y193909D01*
Y193968D01*
X338424Y194009D01*
X338415Y194059D01*
X338407Y194118D01*
X338374Y194251D01*
X338324Y194401D01*
X338249Y194568D01*
X338199Y194651D01*
X338132Y194734D01*
X338065Y194809D01*
X337990Y194884D01*
X337982Y194892D01*
X337965Y194901D01*
X337940Y194917D01*
X337907Y194942D01*
X337857Y194976D01*
X337799Y195009D01*
X337732Y195042D01*
X337657Y195084D01*
X337565Y195117D01*
X337466Y195151D01*
X337357Y195184D01*
X337232Y195217D01*
X337099Y195242D01*
X336957Y195259D01*
X336807Y195276D01*
D02*
G37*
%LPD*%
D12*
X214540Y63410D02*
Y147410D01*
Y63410D02*
X298540D01*
Y147410D01*
X214540D02*
X298540D01*
X367670Y172251D02*
X384170D01*
Y199313D01*
X367670D02*
X384170D01*
X367670Y172251D02*
Y199313D01*
X214370Y166375D02*
X245370D01*
Y201925D01*
X214370D02*
X245370D01*
X214370Y166375D02*
Y201925D01*
X330840Y171889D02*
X347340D01*
Y198951D01*
X330840D02*
X347340D01*
X330840Y171889D02*
Y198951D01*
M02*
