G04*
G04 #@! TF.GenerationSoftware,Altium Limited,Altium Designer,26.7.1 (11)*
G04*
G04 Layer_Color=32768*
G04 Board_Origin=10000000|10000000*
%FSLAX44Y44*%
%MOMM*%
G71*
G04*
G04 #@! TF.SameCoordinates,53AF4999-9EF4-4CB5-B898-457812D12FD6*
G04*
G04*
G04 #@! TF.FilePolarity,Positive*
G04*
G01*
G75*
%ADD10C,0.1000*%
%ADD30C,0.0500*%
D10*
X309695Y182295D02*
Y187795D01*
X306945Y185045D02*
X312445D01*
X307945Y169805D02*
X311445D01*
X309695Y168055D02*
Y171555D01*
X500460Y283770D02*
Y353770D01*
X570460D01*
Y283770D02*
Y353770D01*
X500460Y283770D02*
X570460D01*
X141840Y173650D02*
Y194650D01*
X155340D01*
Y173650D02*
Y194650D01*
X141840Y173650D02*
X155340D01*
X181710Y145940D02*
X194210D01*
X181710Y125840D02*
Y145940D01*
Y125840D02*
X194210D01*
Y145940D01*
X101200Y173650D02*
Y194650D01*
X114700D01*
Y173650D02*
Y194650D01*
X101200Y173650D02*
X114700D01*
X500940Y160580D02*
Y230580D01*
X570940D01*
Y160580D02*
Y230580D01*
X500940Y160580D02*
X570940D01*
D30*
X302195Y189045D02*
X317195D01*
X302195Y181045D02*
X317195D01*
X302195D02*
Y189045D01*
X317195Y181045D02*
Y189045D01*
X302695Y166305D02*
Y173305D01*
X316695Y166305D02*
Y173305D01*
X302695D02*
X316695D01*
X302695Y166305D02*
X316695D01*
M02*
